<?xml version="1.0" standalone="no"?>
<!DOCTYPE svg PUBLIC "-//W3C//DTD SVG 20010904//EN"
 "http://www.w3.org/TR/2001/REC-SVG-20010904/DTD/svg10.dtd">
<svg version="1.0" xmlns="http://www.w3.org/2000/svg"
 width="344.000000pt" height="311.000000pt" viewBox="0 0 344.000000 311.000000"
 preserveAspectRatio="xMidYMid meet">

<g transform="translate(0.000000,311.000000) scale(0.100000,-0.100000)"
fill="#fff" stroke="none">
<path d="M0 1555 l0 -1555 1720 0 1720 0 0 1555 0 1555 -1720 0 -1720 0 0
-1555z m2035 1079 c349 -67 659 -334 780 -674 136 -383 49 -795 -229 -1087
-273 -289 -672 -397 -1052 -287 -412 119 -709 479 -753 914 -39 378 143 765
461 976 235 157 510 211 793 158z"/>
<path d="M1735 2603 c-247 -29 -448 -125 -616 -292 -130 -131 -218 -285 -266
-469 -21 -82 -25 -119 -25 -242 0 -123 4 -160 26 -245 30 -118 104 -274 174
-366 214 -281 570 -433 918 -390 412 51 743 345 856 759 28 103 31 362 5 464
-91 366 -371 659 -714 748 -129 33 -258 45 -358 33z m212 -183 c52 -159 52
-160 7 -160 -31 0 -37 4 -47 30 -10 27 -15 30 -58 30 -42 0 -48 -3 -53 -25 -6
-22 -12 -25 -48 -25 -23 0 -61 -7 -85 -16 l-42 -16 -44 36 c-24 20 -46 36 -49
36 -13 0 -14 -40 -2 -69 13 -31 12 -32 -19 -45 -18 -7 -35 -11 -39 -7 -5 5
-98 248 -98 257 0 1 14 7 31 13 31 11 49 8 49 -8 0 -5 7 -26 16 -47 l16 -39
22 68 c21 68 29 78 75 92 22 7 24 5 18 -21 -4 -16 -13 -50 -21 -75 l-14 -46
67 -52 c37 -28 70 -51 73 -51 7 0 18 29 64 163 l37 108 51 -3 51 -3 42 -125z
m265 49 c57 -22 106 -43 110 -45 4 -3 2 -16 -4 -30 -9 -19 -17 -24 -32 -19
-63 20 -60 23 -100 -79 -39 -100 -52 -111 -91 -82 -17 13 -17 17 18 105 21 50
37 95 37 99 0 5 -16 16 -36 25 -19 10 -33 21 -31 25 2 4 7 15 10 25 4 9 9 17
11 17 3 0 52 -18 108 -41z m-923 -120 c17 -6 31 -16 31 -22 -1 -16 -48 -49
-60 -42 -16 10 -50 -14 -50 -35 0 -25 20 -25 67 0 51 27 88 25 118 -5 50 -49
16 -128 -71 -167 -45 -19 -78 -15 -102 15 -10 12 -7 18 15 33 16 10 38 17 51
15 28 -3 52 15 52 40 0 24 -11 24 -60 -1 -79 -40 -144 -16 -144 53 0 44 31 86
79 108 22 10 40 19 41 19 1 0 15 -5 33 -11z m1225 -72 c44 -39 48 -45 37 -65
-16 -29 -22 -28 -71 13 -47 39 -58 42 -67 18 -4 -11 5 -27 30 -50 41 -37 43
-41 23 -68 -13 -18 -16 -18 -59 18 -43 35 -45 36 -61 18 -16 -17 -14 -21 31
-59 l48 -41 -22 -22 -21 -22 -71 63 c-39 35 -71 67 -71 71 0 5 39 53 86 109
l85 100 27 -20 c15 -10 49 -39 76 -63z m-438 -226 c96 -58 52 -201 -63 -201
-36 0 -50 6 -74 29 -24 25 -29 38 -29 78 1 94 86 143 166 94z m-332 -113 c188
-72 180 -59 184 -294 2 -137 6 -184 15 -181 7 2 13 20 15 40 4 44 22 48 50 12
19 -24 22 -25 71 -13 44 10 54 9 67 -4 30 -30 9 -56 -64 -77 -296 -87 -527
-151 -542 -151 -25 0 -43 25 -35 49 4 15 23 26 61 37 50 14 54 18 54 46 0 19
13 48 35 78 19 26 35 52 35 58 0 5 -25 24 -55 41 -60 34 -75 54 -75 101 0 46
13 63 85 115 37 26 65 48 63 50 -2 2 -41 17 -87 34 -47 17 -88 37 -93 43 -12
19 -10 52 5 67 18 18 56 9 211 -51z m-654 -226 l15 -47 60 -5 60 -5 -47 -34
c-27 -19 -48 -35 -48 -36 0 -2 7 -22 15 -45 24 -69 20 -74 -31 -36 l-47 36
-48 -36 c-27 -20 -49 -32 -49 -27 0 5 7 31 17 58 18 54 21 47 -55 104 l-27 20
62 1 62 0 16 56 c9 31 19 53 23 49 4 -3 14 -27 22 -53z m1536 3 l18 -55 60 0
61 -1 -27 -20 c-76 -57 -73 -50 -55 -104 10 -27 17 -53 17 -58 0 -5 -22 7 -49
27 l-48 36 -46 -35 c-25 -19 -48 -35 -51 -35 -3 0 4 25 15 57 10 31 19 57 19
58 0 1 -21 17 -47 36 l-48 34 60 5 c60 5 60 5 73 45 26 83 25 82 48 10z m-492
-361 c21 -21 20 -40 -4 -64 -23 -23 -40 -25 -62 -7 -24 19 -28 43 -12 66 18
25 56 27 78 5z m-476 -116 c7 -7 12 -24 12 -38 0 -48 -45 -67 -82 -33 -22 20
-23 41 -1 65 18 21 53 24 71 6z m731 -258 c17 -71 31 -135 31 -142 0 -8 -12
-21 -27 -30 -27 -16 -27 -16 -91 40 -43 38 -63 50 -59 37 4 -11 13 -48 21 -83
l14 -62 -28 -15 c-16 -8 -32 -15 -36 -15 -8 0 -204 191 -204 200 0 3 14 14 32
24 l31 19 58 -64 c32 -35 58 -58 59 -51 0 7 -9 44 -20 84 -18 67 -19 72 -2 84
29 22 44 16 104 -43 32 -32 58 -53 58 -47 0 6 -9 37 -20 69 -11 32 -20 65 -20
74 0 14 43 50 62 51 3 0 20 -58 37 -130z m-936 54 c40 -26 74 -48 76 -50 2 -2
-4 -15 -13 -28 l-16 -25 -51 32 c-49 30 -52 31 -65 12 -12 -17 -10 -21 24 -43
54 -36 55 -38 40 -61 -16 -27 -20 -27 -69 6 -24 16 -43 23 -47 17 -4 -6 -17
-27 -30 -46 l-23 -37 -29 17 c-17 9 -30 21 -30 25 0 15 142 227 152 227 5 0
42 -21 81 -46z m184 -87 c2 -3 -7 -45 -22 -95 -14 -50 -25 -98 -25 -106 0 -14
54 -36 88 -36 14 0 16 -29 3 -49 -8 -13 -20 -12 -85 4 -42 11 -82 22 -88 26
-8 5 -1 45 23 139 l34 132 34 -6 c18 -3 35 -7 38 -9z m308 -41 c44 -19 75 -69
75 -123 0 -53 -11 -81 -45 -115 -53 -53 -150 -46 -200 14 -25 29 -27 38 -23
99 3 55 8 73 28 95 43 46 101 56 165 30z" fill="black"/>
<path d="M1848 2454 c-3 -5 -9 -24 -13 -41 -6 -31 -5 -33 19 -33 29 0 29 1 12
49 -7 19 -15 31 -18 25z"/>
<path d="M1793 1663 c-18 -7 -16 -30 3 -37 27 -10 34 -7 34 19 0 24 -11 29
-37 18z" fill="black"/>
<path d="M1791 1456 c-27 -44 -27 -47 9 -35 24 9 30 17 30 40 0 38 -14 37 -39
-5z" fill="black"/>
<path d="M1840 835 c-18 -21 -18 -98 -1 -118 20 -25 67 -21 85 5 18 26 21 80
6 109 -13 24 -72 26 -90 4z" fill="black"/>
</g>
</svg>
